<svg width="48" height="48" fill="none">
  <path d="M24 48c13.2548 0 24-10.7452 24-24S37.2548 0 24 0 0 10.7452 0 24s10.7452 24 24 24Z" fill="#2CA01C"/>
  <path fill-rule="evenodd" clip-rule="evenodd" d="M10.3633 23.8212c0 4.1613 3.3734 7.5347 7.5347 7.5347h1.0764v-2.7986H17.898c-2.6117 0-4.7361-2.1243-4.7361-4.7361 0-2.6113 2.1244-4.7361 4.7361-4.7361h2.5864V33.724c0 1.5457 1.2529 2.7986 2.7986 2.7986V16.2865h-5.385c-4.1613 0-7.5347 3.3738-7.5347 7.5347Zm20.4557-7.5334h-1.0764v2.7986h1.0764c2.6109 0 4.7361 2.1248 4.7361 4.7361 0 2.6113-2.1252 4.7361-4.7361 4.7361h-2.5876V13.9197c0-1.5457-1.253-2.7986-2.7987-2.7986v20.2361h5.3863c4.1609 0 7.5347-3.3734 7.5347-7.5347s-3.3738-7.5347-7.5347-7.5347Z" fill="#fff"/>
</svg>
