<svg width="48" height="48" fill="none">
  <path d="M0 24C0 10.7452 10.7452 0 24 0s24 10.7452 24 24-10.7452 24-24 24S0 37.2548 0 24Z" fill="#00DC00"/>
  <path d="M33.3804 23.7171c0-1.4621 1.1079-2.1688 2.3027-2.1688 1.1944 0 2.2718.7189 2.2718 2.1688h-4.5745Zm2.0914-3.717c-2.4348 0-4.0284 1.6704-4.0284 4.4253 0 3.4196 2.4375 4.4008 4.1784 4.4008 2.2051 0 3.4624-1.4823 3.4624-1.4823l-1.1219-1.1247c-.5951.5347-1.2852.8545-2.313.8545-1.3569 0-2.2716-.7939-2.2716-1.8798h6.047s1.0558-5.1938-3.9529-5.1938ZM13.201 23.57c-.7736-.0966-3.0148-.0096-3.0148-1.0309 0-.6054.9393-.9311 1.8055-.9311 1.384 0 2.2961.5533 2.5614.7372l1.1627-1.1627c-.3443-.2779-1.626-1.1821-3.7241-1.1821-1.9118 0-3.6316.9996-3.6316 2.6026 0 2.4596 2.9679 2.4589 4.2072 2.58.7507.0733 1.4361.1249 1.4361.8609 0 .6842-1.0482 1.0649-1.8598 1.0649-1.3224 0-2.1149-.4346-2.8904-1.1316L8.002 27.2298c1.1477 1.1082 2.6016 1.5964 4.034 1.5964 2.2184 0 3.84-.979 3.84-2.9487 0-1.3056-.8775-2.0829-2.675-2.3075ZM21.5375 25.5699c0 1.6346-1.1649 1.5466-2.2053 1.5466-1.053 0-1.7255-.2806-1.7255-1.0133 0-.6829.5477-.9093 1.6794-.9093h2.2514v.376Zm-1.9467-5.5698c-1.9291 0-3.1797.9821-3.4124 1.1804l1.1694 1.1694c.2329-.1849 1.0264-.7323 2.2578-.7323 1.4776 0 1.9187.5892 1.9187 1.2555v.8299l-2.634.0015c-.9737 0-2.8893.2453-2.8893 2.3886 0 1.5743.9029 2.7331 3.0585 2.7331 1.0821 0 1.9003-.3508 2.4648-1.027v.8545h1.912V23c0-1.9774-1.2124-2.9999-3.8455-2.9999ZM29.3402 24.4083c0 .6588-.0109 1.1467-.064 1.3952-.1175.5489-.7414 1.2702-1.8736 1.2702-.2835 0-1.7361-.1626-1.8988-1.4209-.0328-.2519-.0577-.5857-.0577-1.2445 0-.9799.0403-1.2912.0905-1.5402.1001-.4934.7453-1.2193 1.866-1.2193 1.3722 0 1.813.935 1.8775 1.2963.0447.2501.0601.8043.0601 1.4632Zm0-4.2268v.9489c-.6511-.7567-1.4284-1.1302-2.4899-1.1302-1.8123 0-2.7456 1.0164-3.0616 2.0986-.1174.4023-.1578 1.1704-.1578 2.3057 0 1.0696.0099 2.0424.3818 2.7904.5202 1.0467 1.783 1.6313 2.8376 1.6313 1.0222 0 1.8895-.3964 2.4899-1.0838v.5309c0 .624-.2139 1.0338-.613 1.3578-.4001.3249-.9018.524-1.5985.524-.6316 0-1.2373-.3447-1.5823-.5846l-1.2849 1.2849c.8329.6756 1.829 1.1355 2.9039 1.1444 1.1391.0094 2.0556-.3358 2.8588-.9671.7689-.6046 1.2537-1.7415 1.2537-2.9472v-7.904h-1.9377Z" fill="#fff"/>
</svg>
