<svg viewBox="0 0 200 29" fill="none"><path d="M37.47 9.666h18.67V.133H37.47v9.533ZM.166.133v9.533h9.318v19.067h9.318V9.666h9.35V.133H.167ZM28.152 28.733H56.14v-9.534H37.47V9.666h-9.318v19.067ZM79.933 7.332h-13.71v3.967h4.592v12.433h4.526V11.299h4.592V7.332ZM85.09 11.166c-3.227 0-5.623 2.167-5.623 6.433 0 3.767 2.03 6.4 5.724 6.4 1.93 0 3.494-.5 4.991-1.4l-1.597-2.7c-1.231.634-2.097.867-3.195.867-1.131 0-1.93-.6-2.096-1.967h7.221c.033-.2.033-.466.033-.833.034-4.567-2.063-6.8-5.457-6.8Zm-1.73 5c.133-1.233.666-1.867 1.63-1.867 1.232 0 1.665.634 1.865 1.867H83.36ZM98.569 20.566c-1.132 0-1.73-1-1.73-2.967 0-1.933.532-3.033 1.63-3.033.899 0 1.298.5 1.897 1.6l2.895-2.2c-1.065-1.733-2.396-2.8-4.725-2.8-3.927 0-5.857 2.6-5.857 6.367 0 4.133 2.163 6.433 5.757 6.433 2.163 0 3.494-.833 4.925-2.933l-2.662-2.1c-.799 1.2-1.331 1.633-2.13 1.633ZM113.078 11.166c-1.464 0-2.329.5-3.095 1.067V6.666l-4.226 1.7v15.4h4.226v-7.033c0-1.534.533-1.967 1.431-1.967.865 0 1.398.433 1.398 2v7h4.226v-7.533c0-3.234-1.298-5.067-3.96-5.067ZM127.188 20.033c-1.964 0-2.762-2-2.762-4.5 0-2.6.832-4.5 2.729-4.5 1.497 0 2.063.967 2.628 2.5l4.127-1.633c-1.132-3.1-2.729-4.834-6.755-4.834-4.393 0-7.488 3.2-7.488 8.467 0 4.867 2.596 8.467 7.454 8.467 3.894 0 5.724-2.1 6.822-4.234l-3.827-2.033c-.898 1.533-1.497 2.3-2.928 2.3ZM140.731 12.333v-.9h-4.226v12.3h4.226v-6.7c0-1.5.632-2 1.664-2 .832 0 1.431.433 1.963 1.033l.999-4.367c-.499-.3-1.098-.533-1.997-.533-1.098 0-1.93.467-2.629 1.167ZM154.376 18.467c0 1.533-.532 1.967-1.398 1.967-.865 0-1.397-.434-1.397-2v-7h-4.227v7.533c0 3.233 1.298 5.033 3.994 5.033 1.431 0 2.329-.5 3.061-1.066v.833h4.227v-12.3h-4.227v7M168.985 11.166c-1.464 0-2.329.5-3.095 1.067v-.834h-4.226v12.3h4.226v-7.033c0-1.533.533-1.967 1.431-1.967.866 0 1.398.434 1.398 2v7h4.226v-7.533c0-3.167-1.264-5-3.96-5ZM181.331 20.566c-1.132 0-1.731-1-1.731-2.967 0-1.933.533-3.033 1.598-3.033.898 0 1.297.5 1.896 1.6l2.896-2.2c-1.065-1.733-2.396-2.8-4.726-2.8-3.927 0-5.857 2.6-5.857 6.367 0 4.133 2.163 6.433 5.757 6.433 2.163 0 3.495-.833 4.925-2.933l-2.662-2.1c-.732 1.2-1.298 1.633-2.096 1.633ZM195.84 11.166c-1.465 0-2.33.5-3.095 1.067V6.666l-4.226 1.7v15.4h4.226v-7.033c0-1.534.532-1.967 1.431-1.967.865 0 1.397.433 1.397 2v7h4.227v-7.533c.033-3.234-1.265-5.067-3.96-5.067Z" fill="#C9CFD4"/></svg>