<svg viewBox="0 0 105 29" fill="none"><g clip-path="url(#a)" fill="#C9CFD4"><path d="M0 7.059h6.221l3.623 9.268 3.67-9.268h6.057l-9.121 21.94H4.354l2.497-5.814L0 7.06ZM25.881 6.691c-4.674 0-7.629 4.193-7.629 8.367 0 4.698 3.24 8.422 7.54 8.422 3.209 0 4.419-1.954 4.419-1.954v1.523h5.426V7.06H30.21v1.454S28.86 6.69 25.88 6.69Zm1.154 5.138c2.157 0 3.27 1.707 3.27 3.247 0 1.658-1.192 3.285-3.27 3.285-1.721 0-3.277-1.407-3.277-3.215 0-1.833 1.251-3.317 3.277-3.317ZM37.506 23.048V0h5.675v8.569s1.348-1.876 4.172-1.876c3.453 0 5.477 2.573 5.477 6.25v10.105h-5.634v-8.721c0-1.244-.593-2.447-1.936-2.447-1.366 0-2.079 1.22-2.079 2.447v8.72h-5.675ZM62.505 6.693c-5.353 0-8.54 4.07-8.54 8.432 0 4.963 3.86 8.356 8.56 8.356 4.557 0 8.545-3.24 8.545-8.273 0-5.508-4.175-8.515-8.565-8.515Zm.051 5.184c1.891 0 3.2 1.574 3.2 3.254 0 1.432-1.22 3.199-3.2 3.199-1.814 0-3.175-1.455-3.175-3.215 0-1.695 1.132-3.239 3.175-3.239ZM80.525 6.693c-5.353 0-8.54 4.07-8.54 8.432 0 4.963 3.859 8.356 8.56 8.356 4.557 0 8.544-3.24 8.544-8.273 0-5.508-4.175-8.515-8.564-8.515Zm.05 5.184c1.892 0 3.2 1.574 3.2 3.254 0 1.432-1.219 3.199-3.2 3.199-1.813 0-3.175-1.455-3.175-3.215 0-1.695 1.132-3.239 3.176-3.239ZM93.567 23.387a3.769 3.769 0 1 0 0-7.537 3.769 3.769 0 0 0 0 7.537ZM98.575 14.465H91.79L97.811 0h6.76l-5.996 14.465Z"/></g><defs><clipPath id="a"><path fill="#fff" d="M0 0h104.571v29H0z"/></clipPath></defs></svg>