<svg width="48" height="48" fill="none">
  <path d="M0 24C0 10.7452 10.7452 0 24 0s24 10.7452 24 24-10.7452 24-24 24S0 37.2548 0 24Z" fill="#FF4A00"/>
  <g clip-path="url(#a)">
    <path d="M26.7281 24.0057a6.524 6.524 0 0 1-.4189 2.3031 6.5383 6.5383 0 0 1-2.3039.4196h-.0092a6.54 6.54 0 0 1-2.3032-.4192 6.5269 6.5269 0 0 1-.4193-2.3035v-.0096a6.5272 6.5272 0 0 1 .4185-2.3028 6.5186 6.5186 0 0 1 2.3041-.4197h.0092a6.5178 6.5178 0 0 1 2.3039.4196 6.5205 6.5205 0 0 1 .4189 2.3028v.0096l-.0001.0001Zm8.0303-1.823h-6.3678l4.5025-4.5028a10.9594 10.9594 0 0 0-1.1785-1.3934v-.0003a10.9946 10.9946 0 0 0-1.3931-1.1775l-4.5028 4.5028v-6.3678a10.9522 10.9522 0 0 0-1.8124-.1519h-.0112a10.9567 10.9567 0 0 0-1.8124.1519v6.3678l-4.5028-4.5028c-.4962.3531-.962.7473-1.3923 1.1783l-.0024.0017a10.9725 10.9725 0 0 0-1.1769 1.3912l4.5031 4.5028h-6.3677s-.1519 1.196-.1519 1.8144v.0075c0 .6184.0524 1.2245.1519 1.8144h6.3678l-4.5031 4.5029a10.9866 10.9866 0 0 0 2.5715 2.5715l4.5028-4.5031v6.3681c.5982.1003 1.2037.151 1.8103.1516h.0154a11.0023 11.0023 0 0 0 1.8102-.1516v-6.3681l4.5033 4.5031c.496-.3533.9619-.7473 1.3927-1.1778l.001-.001a11.0216 11.0216 0 0 0 1.1775-1.3927l-4.5032-4.5029h6.3685a10.9617 10.9617 0 0 0 .1516-1.8102v-.0158a10.9638 10.9638 0 0 0-.1516-1.8103Z" fill="#fff"/>
  </g>
  <defs>
    <clipPath id="a">
      <path fill="#fff" transform="translate(13.0918 13.0918)" d="M0 0h21.8182v21.8182H0z"/>
    </clipPath>
  </defs>
</svg>
